<svg xmlns="http://www.w3.org/2000/svg" xmlns:xlink="http://www.w3.org/1999/xlink" width="1000" zoomAndPan="magnify" viewBox="0 0 750 374.999991" height="500" preserveAspectRatio="xMidYMid meet" version="1.0"><defs><g/><clipPath id="id1"><path d="M 37.5 149 L 112 149 L 112 215 L 37.5 215 Z M 37.5 149 " clip-rule="nonzero"/></clipPath><clipPath id="id2"><path d="M 80 74.816406 L 178 74.816406 L 178 215 L 80 215 Z M 80 74.816406 " clip-rule="nonzero"/></clipPath><clipPath id="id3"><path d="M 177 160 L 251.691406 160 L 251.691406 226 L 177 226 Z M 177 160 " clip-rule="nonzero"/></clipPath><clipPath id="id4"><path d="M 111 160 L 209 160 L 209 299.761719 L 111 299.761719 Z M 111 160 " clip-rule="nonzero"/></clipPath></defs><g clip-path="url(#id1)"><path fill="rgb(18.03894%, 19.219971%, 57.249451%)" d="M 70.21875 149.027344 L 111.875 149.027344 C 111.875 189 94.460938 213.03125 80.914062 214.175781 C 80.058594 214.207031 79.203125 214.21875 78.339844 214.21875 L 70.21875 214.21875 C 61.183594 214.21875 53.003906 210.570312 47.082031 204.671875 C 41.160156 198.773438 37.496094 190.625 37.496094 181.625 C 37.496094 163.621094 52.148438 149.027344 70.21875 149.027344 " fill-opacity="1" fill-rule="nonzero"/></g><g clip-path="url(#id2)"><path fill="rgb(0%, 44.309998%, 73.728943%)" d="M 177.316406 107.527344 L 177.316406 126.21875 C 177.316406 140.824219 171.496094 154.828125 161.128906 165.152344 L 135.585938 190.597656 C 121.011719 205.117188 101.453125 213.527344 80.914062 214.175781 C 94.460938 213.03125 111.875 189 111.875 149.027344 L 111.875 107.527344 C 111.875 89.523438 126.523438 74.929688 144.59375 74.929688 C 162.664062 74.929688 177.316406 89.523438 177.316406 107.527344 " fill-opacity="1" fill-rule="nonzero"/></g><g clip-path="url(#id3)"><path fill="rgb(18.03894%, 19.219971%, 57.249451%)" d="M 218.972656 225.574219 L 177.316406 225.574219 C 177.316406 185.601562 194.726562 161.570312 208.277344 160.425781 C 209.132812 160.394531 209.988281 160.382812 210.847656 160.382812 L 218.972656 160.382812 C 228.007812 160.382812 236.1875 164.027344 242.109375 169.929688 C 248.03125 175.828125 251.695312 183.976562 251.695312 192.976562 C 251.695312 210.980469 237.042969 225.574219 218.972656 225.574219 " fill-opacity="1" fill-rule="nonzero"/></g><g clip-path="url(#id4)"><path fill="rgb(0%, 44.309998%, 73.728943%)" d="M 111.875 267.074219 L 111.875 248.382812 C 111.875 233.777344 117.695312 219.773438 128.0625 209.445312 L 153.605469 184 C 168.179688 169.484375 187.734375 161.074219 208.277344 160.425781 C 194.726562 161.570312 177.316406 185.601562 177.316406 225.574219 L 177.316406 267.074219 C 177.316406 285.074219 162.664062 299.667969 144.59375 299.667969 C 126.523438 299.667969 111.875 285.074219 111.875 267.074219 " fill-opacity="1" fill-rule="nonzero"/></g><g fill="rgb(18.03894%, 19.219971%, 57.249451%)" fill-opacity="1"><g transform="translate(295.503885, 253.894386)"><g><path d="M 13.855469 -5.644531 L 13.855469 -48.765625 L 7.65625 -48.765625 L 7.65625 0 L 30.792969 0 L 30.792969 -5.644531 Z M 13.855469 -5.644531 "/></g></g></g><g fill="rgb(18.03894%, 19.219971%, 57.249451%)" fill-opacity="1"><g transform="translate(328.265289, 253.894386)"><g><path d="M 38.964844 0 L 45.441406 0 L 27.464844 -48.765625 L 20.054688 -48.765625 L 2.078125 0 L 8.554688 0 L 12.710938 -11.671875 L 34.773438 -11.671875 Z M 14.683594 -17.144531 L 23.761719 -42.53125 L 32.835938 -17.144531 Z M 14.683594 -17.144531 "/></g></g></g><g fill="rgb(18.03894%, 19.219971%, 57.249451%)" fill-opacity="1"><g transform="translate(375.779713, 253.894386)"><g/></g></g><g fill="rgb(18.03894%, 19.219971%, 57.249451%)" fill-opacity="1"><g transform="translate(394.203673, 253.894386)"><g><path d="M 34.980469 -45.859375 C 32.140625 -47.832031 28.125 -48.765625 22.652344 -48.765625 L 7.65625 -48.765625 L 7.65625 0 L 13.855469 0 L 13.855469 -18.945312 L 22.652344 -18.945312 C 28.296875 -18.945312 32.417969 -20.125 35.257812 -22.582031 C 38.585938 -25.144531 40.210938 -29.335938 40.210938 -34.601562 C 40.210938 -39.867188 38.480469 -43.605469 34.980469 -45.859375 Z M 31.378906 -27.015625 C 29.40625 -25.007812 26.21875 -24.347656 21.855469 -24.347656 L 13.855469 -24.347656 L 13.855469 -43.398438 L 21.855469 -43.398438 C 26.117188 -43.398438 29.199219 -42.949219 31.277344 -41.25 C 32.902344 -39.898438 33.875 -37.683594 33.875 -34.359375 C 33.875 -30.894531 32.972656 -28.574219 31.378906 -27.015625 Z M 31.378906 -27.015625 "/></g></g></g><g fill="rgb(18.03894%, 19.219971%, 57.249451%)" fill-opacity="1"><g transform="translate(437.735481, 253.894386)"><g><path d="M 28.539062 0.65625 C 42.152344 0.65625 52.75 -8.796875 52.75 -24.417969 C 52.75 -39.96875 42.152344 -49.425781 28.539062 -49.425781 C 14.789062 -49.425781 4.261719 -39.96875 4.261719 -24.417969 C 4.261719 -8.796875 14.789062 0.65625 28.539062 0.65625 Z M 28.539062 -5.195312 C 18.425781 -5.195312 10.425781 -12.121094 10.425781 -24.417969 C 10.425781 -36.574219 18.425781 -43.503906 28.539062 -43.503906 C 38.585938 -43.503906 46.550781 -36.574219 46.550781 -24.417969 C 46.550781 -12.121094 38.585938 -5.195312 28.539062 -5.195312 Z M 28.539062 -5.195312 "/></g></g></g><g fill="rgb(18.03894%, 19.219971%, 57.249451%)" fill-opacity="1"><g transform="translate(494.738937, 253.894386)"><g><path d="M 34.980469 -45.859375 C 32.140625 -47.832031 28.125 -48.765625 22.652344 -48.765625 L 7.65625 -48.765625 L 7.65625 0 L 13.855469 0 L 13.855469 -18.945312 L 22.652344 -18.945312 C 28.296875 -18.945312 32.417969 -20.125 35.257812 -22.582031 C 38.585938 -25.144531 40.210938 -29.335938 40.210938 -34.601562 C 40.210938 -39.867188 38.480469 -43.605469 34.980469 -45.859375 Z M 31.378906 -27.015625 C 29.40625 -25.007812 26.21875 -24.347656 21.855469 -24.347656 L 13.855469 -24.347656 L 13.855469 -43.398438 L 21.855469 -43.398438 C 26.117188 -43.398438 29.199219 -42.949219 31.277344 -41.25 C 32.902344 -39.898438 33.875 -37.683594 33.875 -34.359375 C 33.875 -30.894531 32.972656 -28.574219 31.378906 -27.015625 Z M 31.378906 -27.015625 "/></g></g></g><g fill="rgb(18.03894%, 19.219971%, 57.249451%)" fill-opacity="1"><g transform="translate(538.270745, 253.894386)"><g><path d="M 24.347656 0.65625 C 34.429688 0.65625 42.152344 -5.4375 42.152344 -16.175781 L 42.152344 -48.765625 L 35.953125 -48.765625 L 35.953125 -17.039062 C 35.953125 -8.9375 30.824219 -4.988281 24.347656 -4.988281 C 17.871094 -4.988281 12.851562 -8.867188 12.851562 -17.039062 L 12.851562 -48.765625 L 6.648438 -48.765625 L 6.648438 -16.175781 C 6.648438 -5.4375 14.339844 0.65625 24.347656 0.65625 Z M 24.347656 0.65625 "/></g></g></g><g fill="rgb(18.03894%, 19.219971%, 57.249451%)" fill-opacity="1"><g transform="translate(587.066554, 253.894386)"><g><path d="M 13.855469 -5.644531 L 13.855469 -48.765625 L 7.65625 -48.765625 L 7.65625 0 L 30.792969 0 L 30.792969 -5.644531 Z M 13.855469 -5.644531 "/></g></g></g><g fill="rgb(18.03894%, 19.219971%, 57.249451%)" fill-opacity="1"><g transform="translate(619.827943, 253.894386)"><g><path d="M 38.964844 0 L 45.441406 0 L 27.464844 -48.765625 L 20.054688 -48.765625 L 2.078125 0 L 8.554688 0 L 12.710938 -11.671875 L 34.773438 -11.671875 Z M 14.683594 -17.144531 L 23.761719 -42.53125 L 32.835938 -17.144531 Z M 14.683594 -17.144531 "/></g></g></g><g fill="rgb(18.03894%, 19.219971%, 57.249451%)" fill-opacity="1"><g transform="translate(667.342367, 253.894386)"><g><path d="M 41.285156 0 L 29.128906 -19.605469 C 31.621094 -20.191406 33.632812 -21.195312 35.257812 -22.582031 C 38.585938 -25.144531 40.210938 -29.335938 40.210938 -34.601562 C 40.210938 -39.867188 38.480469 -43.605469 34.980469 -45.859375 C 32.140625 -47.832031 28.125 -48.765625 22.652344 -48.765625 L 7.65625 -48.765625 L 7.65625 0 L 13.855469 0 L 13.855469 -18.945312 L 23.066406 -18.945312 L 34.046875 0 Z M 13.855469 -43.398438 L 21.855469 -43.398438 C 26.117188 -43.398438 29.199219 -42.949219 31.277344 -41.25 C 32.902344 -39.898438 33.875 -37.683594 33.875 -34.359375 C 33.875 -30.894531 32.972656 -28.574219 31.378906 -27.015625 C 29.40625 -25.007812 26.21875 -24.347656 21.855469 -24.347656 L 13.855469 -24.347656 Z M 13.855469 -43.398438 "/></g></g></g><g fill="rgb(0%, 44.309998%, 73.728943%)" fill-opacity="1"><g transform="translate(295.501167, 167.21203)"><g><path d="M 30.710938 -38.9375 L 30.710938 -44.035156 L 6.910156 -44.035156 L 6.910156 0 L 12.632812 0 L 12.632812 -19.484375 L 28.398438 -19.484375 L 28.398438 -24.550781 L 12.632812 -24.550781 L 12.632812 -38.9375 Z M 30.710938 -38.9375 "/></g></g></g><g fill="rgb(0%, 44.309998%, 73.728943%)" fill-opacity="1"><g transform="translate(328.741435, 167.21203)"><g><path d="M 35.183594 0 L 41.03125 0 L 24.800781 -44.035156 L 18.109375 -44.035156 L 1.875 0 L 7.726562 0 L 11.476562 -10.539062 L 31.398438 -10.539062 Z M 13.261719 -15.480469 L 21.453125 -38.40625 L 29.648438 -15.480469 Z M 13.261719 -15.480469 "/></g></g></g><g fill="rgb(0%, 44.309998%, 73.728943%)" fill-opacity="1"><g transform="translate(371.6442, 167.21203)"><g><path d="M 37.277344 0 L 26.300781 -17.699219 C 28.554688 -18.234375 30.367188 -19.140625 31.835938 -20.390625 C 34.839844 -22.703125 36.308594 -26.488281 36.308594 -31.242188 C 36.308594 -35.996094 34.746094 -39.375 31.585938 -41.40625 C 29.023438 -43.1875 25.394531 -44.035156 20.453125 -44.035156 L 6.910156 -44.035156 L 6.910156 0 L 12.507812 0 L 12.507812 -17.105469 L 20.828125 -17.105469 L 30.742188 0 Z M 12.507812 -39.1875 L 19.734375 -39.1875 C 23.582031 -39.1875 26.363281 -38.78125 28.242188 -37.246094 C 29.710938 -36.027344 30.585938 -34.027344 30.585938 -31.023438 C 30.585938 -27.894531 29.773438 -25.800781 28.335938 -24.394531 C 26.550781 -22.578125 23.675781 -21.984375 19.734375 -21.984375 L 12.507812 -21.984375 Z M 12.507812 -39.1875 "/></g></g></g><g fill="rgb(0%, 44.309998%, 73.728943%)" fill-opacity="1"><g transform="translate(412.389325, 167.21203)"><g><path d="M 53.476562 0 L 50.164062 -44.035156 L 42.71875 -44.035156 L 29.335938 -9.695312 L 15.980469 -44.035156 L 8.601562 -44.035156 L 5.253906 0 L 10.726562 0 L 13.699219 -36.214844 L 27.675781 0 L 31.023438 0 L 45.097656 -36.339844 L 48.035156 0 Z M 53.476562 0 "/></g></g></g><g fill="rgb(0%, 44.309998%, 73.728943%)" fill-opacity="1"><g transform="translate(471.11483, 167.21203)"><g><path d="M 35.183594 0 L 41.03125 0 L 24.800781 -44.035156 L 18.109375 -44.035156 L 1.875 0 L 7.726562 0 L 11.476562 -10.539062 L 31.398438 -10.539062 Z M 13.261719 -15.480469 L 21.453125 -38.40625 L 29.648438 -15.480469 Z M 13.261719 -15.480469 "/></g></g></g><g fill="rgb(0%, 44.309998%, 73.728943%)" fill-opacity="1"><g transform="translate(514.017607, 167.21203)"><g><path d="M 25.769531 0.59375 C 34.464844 0.59375 41.78125 -3.691406 45.222656 -11.101562 L 40.0625 -13.199219 C 37.371094 -7.757812 32.054688 -4.753906 25.769531 -4.753906 C 16.636719 -4.753906 9.414062 -11.007812 9.414062 -22.046875 C 9.414062 -33.023438 16.636719 -39.28125 25.769531 -39.28125 C 32.054688 -39.28125 37.371094 -36.246094 40.0625 -30.804688 L 45.222656 -32.929688 C 41.78125 -40.3125 34.464844 -44.628906 25.769531 -44.628906 C 13.355469 -44.628906 3.847656 -36.089844 3.847656 -22.046875 C 3.847656 -7.945312 13.355469 0.59375 25.769531 0.59375 Z M 25.769531 0.59375 "/></g></g></g><g fill="rgb(0%, 44.309998%, 73.728943%)" fill-opacity="1"><g transform="translate(561.92361, 167.21203)"><g><path d="M 6.910156 0 L 12.507812 0 L 12.507812 -44.035156 L 6.910156 -44.035156 Z M 6.910156 0 "/></g></g></g><g fill="rgb(0%, 44.309998%, 73.728943%)" fill-opacity="1"><g transform="translate(581.342421, 167.21203)"><g><path d="M 35.183594 0 L 41.03125 0 L 24.800781 -44.035156 L 18.109375 -44.035156 L 1.875 0 L 7.726562 0 L 11.476562 -10.539062 L 31.398438 -10.539062 Z M 13.261719 -15.480469 L 21.453125 -38.40625 L 29.648438 -15.480469 Z M 13.261719 -15.480469 "/></g></g></g></svg>